<svg xmlns="http://www.w3.org/2000/svg" viewBox="0 0 3000 3000"><path fill="#000000" d="M2917.12,1849.22c-0.42-124.75-48.84-244.39-132.13-337.27c-118.36-131.98-227.04-231.4-326.05-298.23C2231.72,1063.27,1963.87,988,1655.45,988c-34.6,0-70.71,0.78-108.34,2.26c-84.26,4.51-200.11,47.4-347.59,128.65c-29.11,16.04-55.23,31.41-78.6,46.16c-3.58-8.65-6.43-16.23-8.35-22.44c121.88-385.18,405.53-662.05,850.9-830.59c69.24-25.57,164.77-39.86,286.65-42.88c148.97-3,250.53-9.03,304.7-18.06c5.99-1.49,9.77-4.51,11.28-9.03c0-12.03-11.28-28.57-33.86-49.65c-22.57-21.06-38.37-32.34-47.4-33.86c-341.55-66.2-562.74-99.31-663.57-99.31c-1.08,0-2.16,0-3.24,0.01c-124.75,0.42-244.39,48.84-337.27,132.13c-131.98,118.36-231.4,227.04-298.23,326.05c-150.44,227.22-225.71,495.06-225.71,803.49c0,34.6,0.78,70.71,2.26,108.34c4.51,84.26,47.4,200.11,128.65,347.59c18.14,32.93,35.42,61.96,51.91,87.54c-371.32-126.39-639.37-407.03-803.99-842.06c-25.57-69.24-39.86-164.77-42.88-286.65c-3-148.97-9.03-250.53-18.06-304.7c-1.49-5.99-4.51-9.77-9.03-11.29c-12.03,0-28.57,11.29-49.66,33.86c-21.06,22.57-32.34,38.37-33.86,47.4c-66.2,341.55-99.31,562.74-99.31,663.56c0,1.08,0,2.16,0.01,3.24c0.42,124.75,48.84,244.4,132.13,337.27c118.36,131.97,227.04,231.4,326.05,298.23c227.22,150.44,495.06,225.71,803.49,225.71c34.6,0,70.71-0.78,108.34-2.26c84.26-4.52,200.11-47.4,347.59-128.65c32.05-17.66,60.39-34.49,85.48-50.58c1.31,3.55,2.47,6.89,3.4,9.87c-121.88,385.18-405.53,662.05-850.9,830.59c-69.24,25.57-164.77,39.86-286.65,42.88c-148.97,3-250.53,9.03-304.7,18.06c-5.99,1.49-9.77,4.52-11.29,9.03c0,12.03,11.29,28.57,33.86,49.66c22.57,21.06,38.37,32.34,47.4,33.86c341.55,66.2,562.74,99.31,663.56,99.31c1.08,0,2.17,0,3.24-0.01c124.75-0.42,244.39-48.84,337.27-132.13c131.98-118.36,231.4-227.04,298.24-326.05c150.44-227.22,225.71-495.07,225.71-803.49c0-34.6-0.78-70.71-2.26-108.34c-4.51-84.25-47.4-200.11-128.65-347.59c-13.02-23.62-25.56-45.13-37.72-64.97c362.97,128.97,625.64,407.76,787.88,836.47c25.57,69.24,39.86,164.77,42.88,286.65c3,148.97,9.03,250.53,18.06,304.7c1.49,5.99,4.51,9.77,9.03,11.29c12.03,0,28.58-11.29,49.66-33.86c21.06-22.57,32.34-38.37,33.86-47.4c66.2-341.55,99.31-562.74,99.31-663.57C2917.12,1851.37,2917.12,1850.29,2917.12,1849.22z M1816.46,1422.59c-157.98,42.75-251.38,205.48-208.63,363.46h0c-42.75-157.98-205.48-251.38-363.46-208.63v0c157.98-42.75,251.39-205.48,208.63-363.46l0,0C1495.76,1371.93,1658.48,1465.34,1816.46,1422.59L1816.46,1422.59z"/></svg>
